<mxfile host="65bd71144e">
    <diagram id="CvfjHtEUOFNY8NPiG7nD" name="MCD">
        <mxGraphModel dx="878" dy="502" grid="1" gridSize="10" guides="1" tooltips="1" connect="1" arrows="1" fold="1" page="1" pageScale="1" pageWidth="850" pageHeight="1100" math="0" shadow="0">
            <root>
                <mxCell id="0"/>
                <mxCell id="1" parent="0"/>
                <mxCell id="Lv0Er9b2tTkbLk1As1dQ-1" value="user" style="swimlane;whiteSpace=wrap;html=1;" parent="1" vertex="1">
                    <mxGeometry x="341" y="230" width="110" height="200" as="geometry"/>
                </mxCell>
                <mxCell id="Lv0Er9b2tTkbLk1As1dQ-2" value="firstname" style="text;html=1;align=center;verticalAlign=middle;resizable=0;points=[];autosize=1;strokeColor=none;fillColor=none;" parent="Lv0Er9b2tTkbLk1As1dQ-1" vertex="1">
                    <mxGeometry y="30" width="70" height="30" as="geometry"/>
                </mxCell>
                <mxCell id="Lv0Er9b2tTkbLk1As1dQ-3" value="lastname" style="text;html=1;align=center;verticalAlign=middle;resizable=0;points=[];autosize=1;strokeColor=none;fillColor=none;" parent="Lv0Er9b2tTkbLk1As1dQ-1" vertex="1">
                    <mxGeometry y="60" width="70" height="30" as="geometry"/>
                </mxCell>
                <mxCell id="Lv0Er9b2tTkbLk1As1dQ-4" value="email" style="text;html=1;align=center;verticalAlign=middle;resizable=0;points=[];autosize=1;strokeColor=none;fillColor=none;" parent="Lv0Er9b2tTkbLk1As1dQ-1" vertex="1">
                    <mxGeometry x="4" y="90" width="50" height="30" as="geometry"/>
                </mxCell>
                <mxCell id="Lv0Er9b2tTkbLk1As1dQ-5" value="hashPassword" style="text;html=1;align=center;verticalAlign=middle;resizable=0;points=[];autosize=1;strokeColor=none;fillColor=none;" parent="Lv0Er9b2tTkbLk1As1dQ-1" vertex="1">
                    <mxGeometry y="120" width="100" height="30" as="geometry"/>
                </mxCell>
                <mxCell id="Lv0Er9b2tTkbLk1As1dQ-6" value="phone_mobile" style="text;html=1;align=center;verticalAlign=middle;resizable=0;points=[];autosize=1;strokeColor=none;fillColor=none;" parent="Lv0Er9b2tTkbLk1As1dQ-1" vertex="1">
                    <mxGeometry y="150" width="100" height="30" as="geometry"/>
                </mxCell>
                <mxCell id="Lv0Er9b2tTkbLk1As1dQ-7" value="newsletter" style="swimlane;whiteSpace=wrap;html=1;startSize=10;" parent="1" vertex="1">
                    <mxGeometry x="219" y="4" width="110" height="80" as="geometry"/>
                </mxCell>
                <mxCell id="Lv0Er9b2tTkbLk1As1dQ-14" value="" style="endArrow=classic;html=1;exitX=0.367;exitY=-0.003;exitDx=0;exitDy=0;exitPerimeter=0;entryX=0.5;entryY=1;entryDx=0;entryDy=0;" parent="1" source="Lv0Er9b2tTkbLk1As1dQ-1" edge="1">
                    <mxGeometry width="50" height="50" relative="1" as="geometry">
                        <mxPoint x="311" y="130" as="sourcePoint"/>
                        <mxPoint x="296" y="80" as="targetPoint"/>
                    </mxGeometry>
                </mxCell>
                <mxCell id="Lv0Er9b2tTkbLk1As1dQ-16" value="0,1" style="text;html=1;align=center;verticalAlign=middle;resizable=0;points=[];autosize=1;strokeColor=none;fillColor=none;" parent="1" vertex="1">
                    <mxGeometry x="337" y="200" width="40" height="30" as="geometry"/>
                </mxCell>
                <mxCell id="Lv0Er9b2tTkbLk1As1dQ-17" value="0,n" style="text;html=1;align=center;verticalAlign=middle;resizable=0;points=[];autosize=1;strokeColor=none;fillColor=none;" parent="1" vertex="1">
                    <mxGeometry x="261" y="80" width="40" height="30" as="geometry"/>
                </mxCell>
                <mxCell id="Lv0Er9b2tTkbLk1As1dQ-20" value="command" style="swimlane;whiteSpace=wrap;html=1;startSize=23;" parent="1" vertex="1">
                    <mxGeometry x="601" y="245" width="100" height="85" as="geometry"/>
                </mxCell>
                <mxCell id="Lv0Er9b2tTkbLk1As1dQ-22" value="statut" style="text;html=1;align=center;verticalAlign=middle;resizable=0;points=[];autosize=1;strokeColor=none;fillColor=none;" parent="1" vertex="1">
                    <mxGeometry x="606" y="290" width="50" height="30" as="geometry"/>
                </mxCell>
                <mxCell id="Lv0Er9b2tTkbLk1As1dQ-24" value="" style="endArrow=classic;html=1;entryX=-0.028;entryY=0.522;entryDx=0;entryDy=0;entryPerimeter=0;exitX=1;exitY=0.25;exitDx=0;exitDy=0;startArrow=none;" parent="1" source="N1LRHJ8-8XwG6mAaGwfK-13" edge="1">
                    <mxGeometry width="50" height="50" relative="1" as="geometry">
                        <mxPoint x="371" y="350" as="sourcePoint"/>
                        <mxPoint x="603.04" y="280.65999999999997" as="targetPoint"/>
                    </mxGeometry>
                </mxCell>
                <mxCell id="Lv0Er9b2tTkbLk1As1dQ-25" value="detail_order" style="swimlane;whiteSpace=wrap;html=1;startSize=23;" parent="1" vertex="1">
                    <mxGeometry x="511" y="400" width="110" height="80" as="geometry"/>
                </mxCell>
                <mxCell id="Lv0Er9b2tTkbLk1As1dQ-26" value="0,n" style="text;html=1;align=center;verticalAlign=middle;resizable=0;points=[];autosize=1;strokeColor=none;fillColor=none;" parent="1" vertex="1">
                    <mxGeometry x="441" y="255" width="40" height="30" as="geometry"/>
                </mxCell>
                <mxCell id="TKvOoq7Yk5l7cbyG8qmb-8" value="" style="edgeStyle=none;html=1;exitX=0.5;exitY=0;exitDx=0;exitDy=0;entryX=0.5;entryY=1;entryDx=0;entryDy=0;" parent="1" source="Lv0Er9b2tTkbLk1As1dQ-20" target="TKvOoq7Yk5l7cbyG8qmb-7" edge="1">
                    <mxGeometry relative="1" as="geometry"/>
                </mxCell>
                <mxCell id="Lv0Er9b2tTkbLk1As1dQ-27" value="1,1" style="text;html=1;align=center;verticalAlign=middle;resizable=0;points=[];autosize=1;strokeColor=none;fillColor=none;" parent="1" vertex="1">
                    <mxGeometry x="564" y="255" width="40" height="30" as="geometry"/>
                </mxCell>
                <mxCell id="Lv0Er9b2tTkbLk1As1dQ-28" value="" style="endArrow=classic;html=1;entryX=0.57;entryY=0.006;entryDx=0;entryDy=0;exitX=0.5;exitY=1;exitDx=0;exitDy=0;entryPerimeter=0;startArrow=none;" parent="1" source="N1LRHJ8-8XwG6mAaGwfK-12" target="Lv0Er9b2tTkbLk1As1dQ-25" edge="1">
                    <mxGeometry width="50" height="50" relative="1" as="geometry">
                        <mxPoint x="371" y="440" as="sourcePoint"/>
                        <mxPoint x="421" y="390" as="targetPoint"/>
                    </mxGeometry>
                </mxCell>
                <mxCell id="Lv0Er9b2tTkbLk1As1dQ-29" value="quantity" style="text;html=1;align=center;verticalAlign=middle;resizable=0;points=[];autosize=1;strokeColor=none;fillColor=none;" parent="1" vertex="1">
                    <mxGeometry x="516" y="425" width="70" height="30" as="geometry"/>
                </mxCell>
                <mxCell id="Lv0Er9b2tTkbLk1As1dQ-30" value="0,n" style="text;html=1;align=center;verticalAlign=middle;resizable=0;points=[];autosize=1;strokeColor=none;fillColor=none;" parent="1" vertex="1">
                    <mxGeometry x="636" y="325" width="40" height="30" as="geometry"/>
                </mxCell>
                <mxCell id="Lv0Er9b2tTkbLk1As1dQ-31" value="1,1" style="text;html=1;align=center;verticalAlign=middle;resizable=0;points=[];autosize=1;strokeColor=none;fillColor=none;" parent="1" vertex="1">
                    <mxGeometry x="535" y="380" width="40" height="30" as="geometry"/>
                </mxCell>
                <mxCell id="Lv0Er9b2tTkbLk1As1dQ-32" value="wishlist" style="swimlane;whiteSpace=wrap;html=1;startSize=23;" parent="1" vertex="1">
                    <mxGeometry x="337" y="517" width="110" height="80" as="geometry"/>
                </mxCell>
                <mxCell id="Lv0Er9b2tTkbLk1As1dQ-33" value="" style="endArrow=classic;html=1;entryX=0.5;entryY=0;entryDx=0;entryDy=0;" parent="1" target="Lv0Er9b2tTkbLk1As1dQ-32" edge="1">
                    <mxGeometry width="50" height="50" relative="1" as="geometry">
                        <mxPoint x="391" y="430" as="sourcePoint"/>
                        <mxPoint x="421" y="270" as="targetPoint"/>
                    </mxGeometry>
                </mxCell>
                <mxCell id="Lv0Er9b2tTkbLk1As1dQ-34" value="0,n" style="text;html=1;align=center;verticalAlign=middle;resizable=0;points=[];autosize=1;strokeColor=none;fillColor=none;" parent="1" vertex="1">
                    <mxGeometry x="351" y="430" width="40" height="30" as="geometry"/>
                </mxCell>
                <mxCell id="Lv0Er9b2tTkbLk1As1dQ-35" value="1,1" style="text;html=1;align=center;verticalAlign=middle;resizable=0;points=[];autosize=1;strokeColor=none;fillColor=none;" parent="1" vertex="1">
                    <mxGeometry x="351" y="487" width="40" height="30" as="geometry"/>
                </mxCell>
                <mxCell id="Lv0Er9b2tTkbLk1As1dQ-37" value="product" style="swimlane;whiteSpace=wrap;html=1;startSize=23;" parent="1" vertex="1">
                    <mxGeometry x="341" y="716" width="110" height="160" as="geometry"/>
                </mxCell>
                <mxCell id="Lv0Er9b2tTkbLk1As1dQ-40" value="description" style="text;html=1;align=center;verticalAlign=middle;resizable=0;points=[];autosize=1;strokeColor=none;fillColor=none;" parent="Lv0Er9b2tTkbLk1As1dQ-37" vertex="1">
                    <mxGeometry x="-5" y="54" width="80" height="30" as="geometry"/>
                </mxCell>
                <mxCell id="Lv0Er9b2tTkbLk1As1dQ-41" value="price" style="text;html=1;align=center;verticalAlign=middle;resizable=0;points=[];autosize=1;strokeColor=none;fillColor=none;" parent="Lv0Er9b2tTkbLk1As1dQ-37" vertex="1">
                    <mxGeometry x="-5" y="72" width="50" height="30" as="geometry"/>
                </mxCell>
                <mxCell id="Lv0Er9b2tTkbLk1As1dQ-38" value="" style="endArrow=classic;html=1;exitX=0.5;exitY=1;exitDx=0;exitDy=0;entryX=0.436;entryY=0;entryDx=0;entryDy=0;entryPerimeter=0;" parent="1" source="Lv0Er9b2tTkbLk1As1dQ-32" target="Lv0Er9b2tTkbLk1As1dQ-37" edge="1">
                    <mxGeometry width="50" height="50" relative="1" as="geometry">
                        <mxPoint x="465" y="587" as="sourcePoint"/>
                        <mxPoint x="435" y="687" as="targetPoint"/>
                    </mxGeometry>
                </mxCell>
                <mxCell id="Lv0Er9b2tTkbLk1As1dQ-39" value="name" style="text;html=1;align=center;verticalAlign=middle;resizable=0;points=[];autosize=1;strokeColor=none;fillColor=none;" parent="1" vertex="1">
                    <mxGeometry x="341" y="748" width="50" height="30" as="geometry"/>
                </mxCell>
                <mxCell id="Lv0Er9b2tTkbLk1As1dQ-43" value="stock" style="text;html=1;align=center;verticalAlign=middle;resizable=0;points=[];autosize=1;strokeColor=none;fillColor=none;" parent="1" vertex="1">
                    <mxGeometry x="341" y="818" width="50" height="30" as="geometry"/>
                </mxCell>
                <mxCell id="Lv0Er9b2tTkbLk1As1dQ-44" value="img_url" style="text;html=1;align=center;verticalAlign=middle;resizable=0;points=[];autosize=1;strokeColor=none;fillColor=none;" parent="1" vertex="1">
                    <mxGeometry x="341" y="846" width="60" height="30" as="geometry"/>
                </mxCell>
                <mxCell id="Lv0Er9b2tTkbLk1As1dQ-45" value="" style="endArrow=classic;html=1;exitX=1;exitY=0.5;exitDx=0;exitDy=0;entryX=0.5;entryY=1;entryDx=0;entryDy=0;" parent="1" source="Lv0Er9b2tTkbLk1As1dQ-37" target="Lv0Er9b2tTkbLk1As1dQ-25" edge="1">
                    <mxGeometry width="50" height="50" relative="1" as="geometry">
                        <mxPoint x="371" y="530" as="sourcePoint"/>
                        <mxPoint x="421" y="480" as="targetPoint"/>
                    </mxGeometry>
                </mxCell>
                <mxCell id="Lv0Er9b2tTkbLk1As1dQ-46" value="1,1" style="text;html=1;align=center;verticalAlign=middle;resizable=0;points=[];autosize=1;strokeColor=none;fillColor=none;" parent="1" vertex="1">
                    <mxGeometry x="386" y="592" width="40" height="30" as="geometry"/>
                </mxCell>
                <mxCell id="Lv0Er9b2tTkbLk1As1dQ-47" value="0,n" style="text;html=1;align=center;verticalAlign=middle;resizable=0;points=[];autosize=1;strokeColor=none;fillColor=none;" parent="1" vertex="1">
                    <mxGeometry x="387" y="686" width="40" height="30" as="geometry"/>
                </mxCell>
                <mxCell id="Lv0Er9b2tTkbLk1As1dQ-48" value="0,n" style="text;html=1;align=center;verticalAlign=middle;resizable=0;points=[];autosize=1;strokeColor=none;fillColor=none;" parent="1" vertex="1">
                    <mxGeometry x="441" y="783" width="40" height="30" as="geometry"/>
                </mxCell>
                <mxCell id="Lv0Er9b2tTkbLk1As1dQ-49" value="0,n" style="text;html=1;align=center;verticalAlign=middle;resizable=0;points=[];autosize=1;strokeColor=none;fillColor=none;" parent="1" vertex="1">
                    <mxGeometry x="551" y="475" width="40" height="30" as="geometry"/>
                </mxCell>
                <mxCell id="Lv0Er9b2tTkbLk1As1dQ-53" value="cart" style="swimlane;whiteSpace=wrap;html=1;startSize=23;" parent="1" vertex="1">
                    <mxGeometry x="171" y="400" width="110" height="80" as="geometry"/>
                </mxCell>
                <mxCell id="Lv0Er9b2tTkbLk1As1dQ-54" value="" style="endArrow=classic;html=1;entryX=0.5;entryY=0;entryDx=0;entryDy=0;exitX=0.417;exitY=1.067;exitDx=0;exitDy=0;exitPerimeter=0;startArrow=none;" parent="1" source="N1LRHJ8-8XwG6mAaGwfK-14" target="Lv0Er9b2tTkbLk1As1dQ-53" edge="1">
                    <mxGeometry width="50" height="50" relative="1" as="geometry">
                        <mxPoint x="371" y="540" as="sourcePoint"/>
                        <mxPoint x="421" y="490" as="targetPoint"/>
                    </mxGeometry>
                </mxCell>
                <mxCell id="Lv0Er9b2tTkbLk1As1dQ-55" value="0,1" style="text;html=1;align=center;verticalAlign=middle;resizable=0;points=[];autosize=1;strokeColor=none;fillColor=none;" parent="1" vertex="1">
                    <mxGeometry x="311" y="275" width="40" height="30" as="geometry"/>
                </mxCell>
                <mxCell id="Lv0Er9b2tTkbLk1As1dQ-56" value="1,1" style="text;html=1;align=center;verticalAlign=middle;resizable=0;points=[];autosize=1;strokeColor=none;fillColor=none;" parent="1" vertex="1">
                    <mxGeometry x="201" y="375" width="40" height="30" as="geometry"/>
                </mxCell>
                <mxCell id="Lv0Er9b2tTkbLk1As1dQ-58" value="" style="endArrow=classic;html=1;entryX=0.5;entryY=1;entryDx=0;entryDy=0;" parent="1" edge="1">
                    <mxGeometry width="50" height="50" relative="1" as="geometry">
                        <mxPoint x="361" y="717" as="sourcePoint"/>
                        <mxPoint x="226" y="477" as="targetPoint"/>
                    </mxGeometry>
                </mxCell>
                <mxCell id="Lv0Er9b2tTkbLk1As1dQ-59" value="0,n" style="text;html=1;align=center;verticalAlign=middle;resizable=0;points=[];autosize=1;strokeColor=none;fillColor=none;" parent="1" vertex="1">
                    <mxGeometry x="321" y="685" width="40" height="30" as="geometry"/>
                </mxCell>
                <mxCell id="Lv0Er9b2tTkbLk1As1dQ-60" value="0,n" style="text;html=1;align=center;verticalAlign=middle;resizable=0;points=[];autosize=1;strokeColor=none;fillColor=none;" parent="1" vertex="1">
                    <mxGeometry x="191" y="475" width="40" height="30" as="geometry"/>
                </mxCell>
                <mxCell id="Lv0Er9b2tTkbLk1As1dQ-65" value="0,n" style="text;html=1;align=center;verticalAlign=middle;resizable=0;points=[];autosize=1;strokeColor=none;fillColor=none;" parent="1" vertex="1">
                    <mxGeometry x="311" y="755" width="40" height="30" as="geometry"/>
                </mxCell>
                <mxCell id="Lv0Er9b2tTkbLk1As1dQ-67" value="avis" style="swimlane;whiteSpace=wrap;html=1;startSize=23;" parent="1" vertex="1">
                    <mxGeometry x="331" y="983" width="110" height="87" as="geometry"/>
                </mxCell>
                <mxCell id="Lv0Er9b2tTkbLk1As1dQ-73" value="comment" style="text;html=1;align=center;verticalAlign=middle;resizable=0;points=[];autosize=1;strokeColor=none;fillColor=none;" parent="Lv0Er9b2tTkbLk1As1dQ-67" vertex="1">
                    <mxGeometry y="50" width="70" height="30" as="geometry"/>
                </mxCell>
                <mxCell id="Lv0Er9b2tTkbLk1As1dQ-69" value="" style="endArrow=classic;html=1;exitX=0.745;exitY=1.089;exitDx=0;exitDy=0;exitPerimeter=0;entryX=0.5;entryY=0;entryDx=0;entryDy=0;" parent="1" source="Lv0Er9b2tTkbLk1As1dQ-44" target="Lv0Er9b2tTkbLk1As1dQ-67" edge="1">
                    <mxGeometry width="50" height="50" relative="1" as="geometry">
                        <mxPoint x="371" y="1020" as="sourcePoint"/>
                        <mxPoint x="421" y="970" as="targetPoint"/>
                    </mxGeometry>
                </mxCell>
                <mxCell id="Lv0Er9b2tTkbLk1As1dQ-70" value="0,n" style="text;html=1;align=center;verticalAlign=middle;resizable=0;points=[];autosize=1;strokeColor=none;fillColor=none;" parent="1" vertex="1">
                    <mxGeometry x="381" y="875" width="40" height="30" as="geometry"/>
                </mxCell>
                <mxCell id="Lv0Er9b2tTkbLk1As1dQ-71" value="1,1" style="text;html=1;align=center;verticalAlign=middle;resizable=0;points=[];autosize=1;strokeColor=none;fillColor=none;" parent="1" vertex="1">
                    <mxGeometry x="381" y="935" width="40" height="30" as="geometry"/>
                </mxCell>
                <mxCell id="2" value="category" style="swimlane;whiteSpace=wrap;html=1;startSize=23;" parent="1" vertex="1">
                    <mxGeometry x="616" y="796" width="110" height="84" as="geometry"/>
                </mxCell>
                <mxCell id="3" value="name" style="text;html=1;align=center;verticalAlign=middle;resizable=0;points=[];autosize=1;strokeColor=none;fillColor=none;" parent="2" vertex="1">
                    <mxGeometry x="10" y="25" width="50" height="30" as="geometry"/>
                </mxCell>
                <mxCell id="4" value="description" style="text;html=1;align=center;verticalAlign=middle;resizable=0;points=[];autosize=1;strokeColor=none;fillColor=none;" parent="2" vertex="1">
                    <mxGeometry x="-5" y="50" width="80" height="30" as="geometry"/>
                </mxCell>
                <mxCell id="6" value="" style="endArrow=classic;html=1;exitX=1;exitY=0.75;exitDx=0;exitDy=0;" parent="1" source="Lv0Er9b2tTkbLk1As1dQ-37" edge="1">
                    <mxGeometry width="50" height="50" relative="1" as="geometry">
                        <mxPoint x="361" y="900" as="sourcePoint"/>
                        <mxPoint x="600" y="1080" as="targetPoint"/>
                    </mxGeometry>
                </mxCell>
                <mxCell id="7" value="0,n" style="text;html=1;align=center;verticalAlign=middle;resizable=0;points=[];autosize=1;strokeColor=none;fillColor=none;" parent="1" vertex="1">
                    <mxGeometry x="567" y="1024.5" width="40" height="30" as="geometry"/>
                </mxCell>
                <mxCell id="0WFxUsDukGwvjca6wQdN-7" value="1,1" style="text;html=1;align=center;verticalAlign=middle;resizable=0;points=[];autosize=1;strokeColor=none;fillColor=none;" parent="1" vertex="1">
                    <mxGeometry x="447" y="823" width="40" height="30" as="geometry"/>
                </mxCell>
                <mxCell id="N1LRHJ8-8XwG6mAaGwfK-7" value="avoir" style="ellipse;whiteSpace=wrap;html=1;" parent="1" vertex="1">
                    <mxGeometry x="346" y="910" width="80" height="30" as="geometry"/>
                </mxCell>
                <mxCell id="N1LRHJ8-8XwG6mAaGwfK-9" value="ajouter" style="ellipse;whiteSpace=wrap;html=1;" parent="1" vertex="1">
                    <mxGeometry x="231" y="567" width="80" height="30" as="geometry"/>
                </mxCell>
                <mxCell id="N1LRHJ8-8XwG6mAaGwfK-10" value="ajouter" style="ellipse;whiteSpace=wrap;html=1;" parent="1" vertex="1">
                    <mxGeometry x="351" y="645" width="80" height="30" as="geometry"/>
                </mxCell>
                <mxCell id="N1LRHJ8-8XwG6mAaGwfK-11" value="avoir" style="ellipse;whiteSpace=wrap;html=1;" parent="1" vertex="1">
                    <mxGeometry x="495" y="560" width="80" height="30" as="geometry"/>
                </mxCell>
                <mxCell id="N1LRHJ8-8XwG6mAaGwfK-15" value="Inscrire" style="ellipse;whiteSpace=wrap;html=1;" parent="1" vertex="1">
                    <mxGeometry x="301" y="155" width="80" height="30" as="geometry"/>
                </mxCell>
                <mxCell id="N1LRHJ8-8XwG6mAaGwfK-16" value="" style="endArrow=none;html=1;entryX=0.5;entryY=0;entryDx=0;entryDy=0;exitX=-0.009;exitY=0.222;exitDx=0;exitDy=0;exitPerimeter=0;" parent="1" source="Lv0Er9b2tTkbLk1As1dQ-3" target="N1LRHJ8-8XwG6mAaGwfK-14" edge="1">
                    <mxGeometry width="50" height="50" relative="1" as="geometry">
                        <mxPoint x="340.3699999999999" y="296.65999999999997" as="sourcePoint"/>
                        <mxPoint x="226" y="400" as="targetPoint"/>
                    </mxGeometry>
                </mxCell>
                <mxCell id="N1LRHJ8-8XwG6mAaGwfK-14" value="avoir" style="ellipse;whiteSpace=wrap;html=1;" parent="1" vertex="1">
                    <mxGeometry x="241" y="325" width="80" height="30" as="geometry"/>
                </mxCell>
                <mxCell id="N1LRHJ8-8XwG6mAaGwfK-18" value="" style="endArrow=none;html=1;entryX=-0.028;entryY=0.522;entryDx=0;entryDy=0;entryPerimeter=0;exitX=1;exitY=0.25;exitDx=0;exitDy=0;" parent="1" source="Lv0Er9b2tTkbLk1As1dQ-1" target="N1LRHJ8-8XwG6mAaGwfK-13" edge="1">
                    <mxGeometry width="50" height="50" relative="1" as="geometry">
                        <mxPoint x="451" y="280" as="sourcePoint"/>
                        <mxPoint x="603.04" y="280.65999999999997" as="targetPoint"/>
                    </mxGeometry>
                </mxCell>
                <mxCell id="N1LRHJ8-8XwG6mAaGwfK-13" value="passer" style="ellipse;whiteSpace=wrap;html=1;" parent="1" vertex="1">
                    <mxGeometry x="487" y="265" width="80" height="30" as="geometry"/>
                </mxCell>
                <mxCell id="N1LRHJ8-8XwG6mAaGwfK-19" value="" style="endArrow=none;html=1;entryX=0.57;entryY=0.006;entryDx=0;entryDy=0;exitX=0.5;exitY=1;exitDx=0;exitDy=0;entryPerimeter=0;" parent="1" source="Lv0Er9b2tTkbLk1As1dQ-20" target="N1LRHJ8-8XwG6mAaGwfK-12" edge="1">
                    <mxGeometry width="50" height="50" relative="1" as="geometry">
                        <mxPoint x="651" y="330" as="sourcePoint"/>
                        <mxPoint x="573.7" y="400.48" as="targetPoint"/>
                    </mxGeometry>
                </mxCell>
                <mxCell id="N1LRHJ8-8XwG6mAaGwfK-12" value="avoir" style="ellipse;whiteSpace=wrap;html=1;" parent="1" vertex="1">
                    <mxGeometry x="556" y="350" width="80" height="30" as="geometry"/>
                </mxCell>
                <mxCell id="N1LRHJ8-8XwG6mAaGwfK-21" value="contient" style="ellipse;whiteSpace=wrap;html=1;" parent="1" vertex="1">
                    <mxGeometry x="495" y="953" width="80" height="30" as="geometry"/>
                </mxCell>
                <mxCell id="N1LRHJ8-8XwG6mAaGwfK-22" value="avoir" style="ellipse;whiteSpace=wrap;html=1;" parent="1" vertex="1">
                    <mxGeometry x="347" y="460" width="80" height="30" as="geometry"/>
                </mxCell>
                <mxCell id="TKvOoq7Yk5l7cbyG8qmb-7" value="payment" style="swimlane;whiteSpace=wrap;html=1;startSize=23;" parent="1" vertex="1">
                    <mxGeometry x="601" y="37.5" width="100" height="85" as="geometry"/>
                </mxCell>
                <mxCell id="TKvOoq7Yk5l7cbyG8qmb-13" value="total_price" style="text;html=1;align=center;verticalAlign=middle;resizable=0;points=[];autosize=1;strokeColor=none;fillColor=none;" parent="TKvOoq7Yk5l7cbyG8qmb-7" vertex="1">
                    <mxGeometry y="27.5" width="80" height="30" as="geometry"/>
                </mxCell>
                <mxCell id="TKvOoq7Yk5l7cbyG8qmb-9" value="payer" style="ellipse;whiteSpace=wrap;html=1;" parent="1" vertex="1">
                    <mxGeometry x="614" y="170" width="80" height="30" as="geometry"/>
                </mxCell>
                <mxCell id="TKvOoq7Yk5l7cbyG8qmb-10" value="1,1" style="text;html=1;align=center;verticalAlign=middle;resizable=0;points=[];autosize=1;strokeColor=none;fillColor=none;" parent="1" vertex="1">
                    <mxGeometry x="650" y="215" width="40" height="30" as="geometry"/>
                </mxCell>
                <mxCell id="TKvOoq7Yk5l7cbyG8qmb-12" value="0,1" style="text;html=1;align=center;verticalAlign=middle;resizable=0;points=[];autosize=1;strokeColor=none;fillColor=none;" parent="1" vertex="1">
                    <mxGeometry x="650" y="115" width="40" height="30" as="geometry"/>
                </mxCell>
                <mxCell id="vTof2yaJLKvFjiHK5ner-7" value="sous-category" style="swimlane;whiteSpace=wrap;html=1;startSize=23;" parent="1" vertex="1">
                    <mxGeometry x="601" y="990" width="110" height="110" as="geometry"/>
                </mxCell>
                <mxCell id="vTof2yaJLKvFjiHK5ner-8" value="name" style="text;html=1;align=center;verticalAlign=middle;resizable=0;points=[];autosize=1;strokeColor=none;fillColor=none;" parent="vTof2yaJLKvFjiHK5ner-7" vertex="1">
                    <mxGeometry x="10" y="25" width="50" height="30" as="geometry"/>
                </mxCell>
                <mxCell id="vTof2yaJLKvFjiHK5ner-9" value="description" style="text;html=1;align=center;verticalAlign=middle;resizable=0;points=[];autosize=1;strokeColor=none;fillColor=none;" parent="vTof2yaJLKvFjiHK5ner-7" vertex="1">
                    <mxGeometry x="-5" y="50" width="80" height="30" as="geometry"/>
                </mxCell>
                <mxCell id="vTof2yaJLKvFjiHK5ner-10" value="" style="endArrow=classic;html=1;exitX=0.5;exitY=0;exitDx=0;exitDy=0;entryX=0.521;entryY=1.189;entryDx=0;entryDy=0;entryPerimeter=0;" parent="1" source="vTof2yaJLKvFjiHK5ner-7" target="4" edge="1">
                    <mxGeometry width="50" height="50" relative="1" as="geometry">
                        <mxPoint x="395.70000000000005" y="888.6700000000001" as="sourcePoint"/>
                        <mxPoint x="396" y="993" as="targetPoint"/>
                    </mxGeometry>
                </mxCell>
                <mxCell id="vTof2yaJLKvFjiHK5ner-11" value="contient" style="ellipse;whiteSpace=wrap;html=1;" parent="1" vertex="1">
                    <mxGeometry x="616" y="923" width="80" height="30" as="geometry"/>
                </mxCell>
                <mxCell id="vTof2yaJLKvFjiHK5ner-12" value="1,1" style="text;html=1;align=center;verticalAlign=middle;resizable=0;points=[];autosize=1;strokeColor=none;fillColor=none;" parent="1" vertex="1">
                    <mxGeometry x="650" y="965" width="40" height="30" as="geometry"/>
                </mxCell>
                <mxCell id="vTof2yaJLKvFjiHK5ner-13" value="0,n" style="text;html=1;align=center;verticalAlign=middle;resizable=0;points=[];autosize=1;strokeColor=none;fillColor=none;" parent="1" vertex="1">
                    <mxGeometry x="650" y="875" width="40" height="30" as="geometry"/>
                </mxCell>
            </root>
        </mxGraphModel>
    </diagram>
    <diagram name="MPD" id="3AWbEABawdYKvhhRtkfU">
        <mxGraphModel dx="816" dy="336" grid="1" gridSize="10" guides="1" tooltips="1" connect="1" arrows="1" fold="1" page="1" pageScale="1" pageWidth="850" pageHeight="1100" math="0" shadow="0">
            <root>
                <mxCell id="6nwYWtiXRFRDtBGKJxEg-0"/>
                <mxCell id="6nwYWtiXRFRDtBGKJxEg-1" parent="6nwYWtiXRFRDtBGKJxEg-0"/>
                <mxCell id="6nwYWtiXRFRDtBGKJxEg-2" value="user" style="swimlane;whiteSpace=wrap;html=1;" parent="6nwYWtiXRFRDtBGKJxEg-1" vertex="1">
                    <mxGeometry x="300" y="235" width="110" height="200" as="geometry"/>
                </mxCell>
                <mxCell id="6nwYWtiXRFRDtBGKJxEg-3" value="firstname" style="text;html=1;align=center;verticalAlign=middle;resizable=0;points=[];autosize=1;strokeColor=none;fillColor=none;" parent="6nwYWtiXRFRDtBGKJxEg-2" vertex="1">
                    <mxGeometry y="45" width="70" height="30" as="geometry"/>
                </mxCell>
                <mxCell id="6nwYWtiXRFRDtBGKJxEg-4" value="lastname" style="text;html=1;align=center;verticalAlign=middle;resizable=0;points=[];autosize=1;strokeColor=none;fillColor=none;" parent="6nwYWtiXRFRDtBGKJxEg-2" vertex="1">
                    <mxGeometry y="70" width="70" height="30" as="geometry"/>
                </mxCell>
                <mxCell id="6nwYWtiXRFRDtBGKJxEg-5" value="email" style="text;html=1;align=center;verticalAlign=middle;resizable=0;points=[];autosize=1;strokeColor=none;fillColor=none;" parent="6nwYWtiXRFRDtBGKJxEg-2" vertex="1">
                    <mxGeometry x="1" y="94" width="50" height="30" as="geometry"/>
                </mxCell>
                <mxCell id="6nwYWtiXRFRDtBGKJxEg-6" value="hashPassword" style="text;html=1;align=center;verticalAlign=middle;resizable=0;points=[];autosize=1;strokeColor=none;fillColor=none;" parent="6nwYWtiXRFRDtBGKJxEg-2" vertex="1">
                    <mxGeometry y="120" width="100" height="30" as="geometry"/>
                </mxCell>
                <mxCell id="6nwYWtiXRFRDtBGKJxEg-7" value="phone_mobile" style="text;html=1;align=center;verticalAlign=middle;resizable=0;points=[];autosize=1;strokeColor=none;fillColor=none;" parent="6nwYWtiXRFRDtBGKJxEg-2" vertex="1">
                    <mxGeometry y="150" width="100" height="30" as="geometry"/>
                </mxCell>
                <mxCell id="KrLnZW23wrya4tjryXH2-14" value="id" style="text;html=1;align=center;verticalAlign=middle;resizable=0;points=[];autosize=1;strokeColor=none;fillColor=none;" parent="6nwYWtiXRFRDtBGKJxEg-2" vertex="1">
                    <mxGeometry y="25" width="30" height="30" as="geometry"/>
                </mxCell>
                <mxCell id="6nwYWtiXRFRDtBGKJxEg-8" value="newletter" style="swimlane;whiteSpace=wrap;html=1;startSize=23;" parent="6nwYWtiXRFRDtBGKJxEg-1" vertex="1">
                    <mxGeometry x="200" y="5" width="110" height="120" as="geometry"/>
                </mxCell>
                <mxCell id="KrLnZW23wrya4tjryXH2-18" value="id" style="text;html=1;align=center;verticalAlign=middle;resizable=0;points=[];autosize=1;strokeColor=none;fillColor=none;" parent="6nwYWtiXRFRDtBGKJxEg-8" vertex="1">
                    <mxGeometry x="10" y="35" width="30" height="30" as="geometry"/>
                </mxCell>
                <mxCell id="6nwYWtiXRFRDtBGKJxEg-20" value="command" style="swimlane;whiteSpace=wrap;html=1;startSize=23;" parent="6nwYWtiXRFRDtBGKJxEg-1" vertex="1">
                    <mxGeometry x="480" y="252" width="100" height="98" as="geometry"/>
                </mxCell>
                <mxCell id="Nch3IXGT_WikVMm_Mk6D-3" value="payment_id" style="text;html=1;align=center;verticalAlign=middle;resizable=0;points=[];autosize=1;strokeColor=none;fillColor=none;" parent="6nwYWtiXRFRDtBGKJxEg-20" vertex="1">
                    <mxGeometry y="68" width="90" height="30" as="geometry"/>
                </mxCell>
                <mxCell id="6nwYWtiXRFRDtBGKJxEg-21" value="payment" style="text;html=1;align=center;verticalAlign=middle;resizable=0;points=[];autosize=1;strokeColor=none;fillColor=none;" parent="6nwYWtiXRFRDtBGKJxEg-1" vertex="1">
                    <mxGeometry x="484" y="283" width="70" height="30" as="geometry"/>
                </mxCell>
                <mxCell id="6nwYWtiXRFRDtBGKJxEg-22" value="statut" style="text;html=1;align=center;verticalAlign=middle;resizable=0;points=[];autosize=1;strokeColor=none;fillColor=none;" parent="6nwYWtiXRFRDtBGKJxEg-1" vertex="1">
                    <mxGeometry x="485" y="304" width="50" height="30" as="geometry"/>
                </mxCell>
                <mxCell id="6nwYWtiXRFRDtBGKJxEg-24" value="detail_order" style="swimlane;whiteSpace=wrap;html=1;startSize=23;" parent="6nwYWtiXRFRDtBGKJxEg-1" vertex="1">
                    <mxGeometry x="470" y="408" width="110" height="80" as="geometry"/>
                </mxCell>
                <mxCell id="KrLnZW23wrya4tjryXH2-10" value="id" style="text;html=1;align=center;verticalAlign=middle;resizable=0;points=[];autosize=1;strokeColor=none;fillColor=none;" parent="6nwYWtiXRFRDtBGKJxEg-24" vertex="1">
                    <mxGeometry x="10" y="25" width="30" height="30" as="geometry"/>
                </mxCell>
                <mxCell id="6nwYWtiXRFRDtBGKJxEg-28" value="quantity" style="text;html=1;align=center;verticalAlign=middle;resizable=0;points=[];autosize=1;strokeColor=none;fillColor=none;" parent="6nwYWtiXRFRDtBGKJxEg-1" vertex="1">
                    <mxGeometry x="475" y="452" width="70" height="30" as="geometry"/>
                </mxCell>
                <mxCell id="6nwYWtiXRFRDtBGKJxEg-31" value="wishlist" style="swimlane;whiteSpace=wrap;html=1;startSize=23;" parent="6nwYWtiXRFRDtBGKJxEg-1" vertex="1">
                    <mxGeometry x="296" y="522" width="110" height="80" as="geometry"/>
                </mxCell>
                <mxCell id="KrLnZW23wrya4tjryXH2-8" value="id" style="text;html=1;align=center;verticalAlign=middle;resizable=0;points=[];autosize=1;strokeColor=none;fillColor=none;" parent="6nwYWtiXRFRDtBGKJxEg-31" vertex="1">
                    <mxGeometry x="9" y="25" width="30" height="30" as="geometry"/>
                </mxCell>
                <mxCell id="6nwYWtiXRFRDtBGKJxEg-32" value="" style="endArrow=classic;html=1;entryX=0.5;entryY=0;entryDx=0;entryDy=0;" parent="6nwYWtiXRFRDtBGKJxEg-1" target="6nwYWtiXRFRDtBGKJxEg-31" edge="1">
                    <mxGeometry width="50" height="50" relative="1" as="geometry">
                        <mxPoint x="350" y="435" as="sourcePoint"/>
                        <mxPoint x="380" y="275" as="targetPoint"/>
                    </mxGeometry>
                </mxCell>
                <mxCell id="6nwYWtiXRFRDtBGKJxEg-33" value="0,n" style="text;html=1;align=center;verticalAlign=middle;resizable=0;points=[];autosize=1;strokeColor=none;fillColor=none;" parent="6nwYWtiXRFRDtBGKJxEg-1" vertex="1">
                    <mxGeometry x="310" y="435" width="40" height="30" as="geometry"/>
                </mxCell>
                <mxCell id="6nwYWtiXRFRDtBGKJxEg-34" value="1,1" style="text;html=1;align=center;verticalAlign=middle;resizable=0;points=[];autosize=1;strokeColor=none;fillColor=none;" parent="6nwYWtiXRFRDtBGKJxEg-1" vertex="1">
                    <mxGeometry x="310" y="492" width="40" height="30" as="geometry"/>
                </mxCell>
                <mxCell id="6nwYWtiXRFRDtBGKJxEg-35" value="qauntity" style="text;html=1;align=center;verticalAlign=middle;resizable=0;points=[];autosize=1;strokeColor=none;fillColor=none;" parent="6nwYWtiXRFRDtBGKJxEg-1" vertex="1">
                    <mxGeometry x="295" y="564" width="70" height="30" as="geometry"/>
                </mxCell>
                <mxCell id="6nwYWtiXRFRDtBGKJxEg-36" value="product" style="swimlane;whiteSpace=wrap;html=1;startSize=23;" parent="6nwYWtiXRFRDtBGKJxEg-1" vertex="1">
                    <mxGeometry x="300" y="721" width="110" height="179" as="geometry"/>
                </mxCell>
                <mxCell id="6nwYWtiXRFRDtBGKJxEg-37" value="description" style="text;html=1;align=center;verticalAlign=middle;resizable=0;points=[];autosize=1;strokeColor=none;fillColor=none;" parent="6nwYWtiXRFRDtBGKJxEg-36" vertex="1">
                    <mxGeometry x="-5" y="62" width="80" height="30" as="geometry"/>
                </mxCell>
                <mxCell id="6nwYWtiXRFRDtBGKJxEg-38" value="price" style="text;html=1;align=center;verticalAlign=middle;resizable=0;points=[];autosize=1;strokeColor=none;fillColor=none;" parent="6nwYWtiXRFRDtBGKJxEg-36" vertex="1">
                    <mxGeometry x="-5" y="85" width="50" height="30" as="geometry"/>
                </mxCell>
                <mxCell id="GEKt4nUGtRGo-3rYPxrv-13" value="sous-category_id" style="text;html=1;align=center;verticalAlign=middle;resizable=0;points=[];autosize=1;strokeColor=none;fillColor=none;" vertex="1" parent="6nwYWtiXRFRDtBGKJxEg-36">
                    <mxGeometry y="149" width="110" height="30" as="geometry"/>
                </mxCell>
                <mxCell id="6nwYWtiXRFRDtBGKJxEg-39" value="" style="endArrow=classic;html=1;exitX=0.5;exitY=1;exitDx=0;exitDy=0;entryX=0.436;entryY=0;entryDx=0;entryDy=0;entryPerimeter=0;" parent="6nwYWtiXRFRDtBGKJxEg-1" source="6nwYWtiXRFRDtBGKJxEg-31" target="6nwYWtiXRFRDtBGKJxEg-36" edge="1">
                    <mxGeometry width="50" height="50" relative="1" as="geometry">
                        <mxPoint x="424" y="592" as="sourcePoint"/>
                        <mxPoint x="394" y="692" as="targetPoint"/>
                    </mxGeometry>
                </mxCell>
                <mxCell id="6nwYWtiXRFRDtBGKJxEg-40" value="name" style="text;html=1;align=center;verticalAlign=middle;resizable=0;points=[];autosize=1;strokeColor=none;fillColor=none;" parent="6nwYWtiXRFRDtBGKJxEg-1" vertex="1">
                    <mxGeometry x="300" y="760" width="50" height="30" as="geometry"/>
                </mxCell>
                <mxCell id="6nwYWtiXRFRDtBGKJxEg-41" value="stock" style="text;html=1;align=center;verticalAlign=middle;resizable=0;points=[];autosize=1;strokeColor=none;fillColor=none;" parent="6nwYWtiXRFRDtBGKJxEg-1" vertex="1">
                    <mxGeometry x="300" y="830" width="50" height="30" as="geometry"/>
                </mxCell>
                <mxCell id="6nwYWtiXRFRDtBGKJxEg-42" value="img_url" style="text;html=1;align=center;verticalAlign=middle;resizable=0;points=[];autosize=1;strokeColor=none;fillColor=none;" parent="6nwYWtiXRFRDtBGKJxEg-1" vertex="1">
                    <mxGeometry x="300" y="851" width="60" height="30" as="geometry"/>
                </mxCell>
                <mxCell id="6nwYWtiXRFRDtBGKJxEg-48" value="cart" style="swimlane;whiteSpace=wrap;html=1;startSize=23;" parent="6nwYWtiXRFRDtBGKJxEg-1" vertex="1">
                    <mxGeometry x="130" y="405" width="110" height="80" as="geometry"/>
                </mxCell>
                <mxCell id="KrLnZW23wrya4tjryXH2-16" value="id" style="text;html=1;align=center;verticalAlign=middle;resizable=0;points=[];autosize=1;strokeColor=none;fillColor=none;" parent="6nwYWtiXRFRDtBGKJxEg-48" vertex="1">
                    <mxGeometry x="10" y="25" width="30" height="30" as="geometry"/>
                </mxCell>
                <mxCell id="6nwYWtiXRFRDtBGKJxEg-52" value="product_cart" style="swimlane;whiteSpace=wrap;html=1;startSize=23;" parent="6nwYWtiXRFRDtBGKJxEg-1" vertex="1">
                    <mxGeometry x="150" y="570" width="110" height="100" as="geometry"/>
                </mxCell>
                <mxCell id="KrLnZW23wrya4tjryXH2-4" value="id" style="text;html=1;align=center;verticalAlign=middle;resizable=0;points=[];autosize=1;strokeColor=none;fillColor=none;" parent="6nwYWtiXRFRDtBGKJxEg-52" vertex="1">
                    <mxGeometry x="9" y="20" width="30" height="30" as="geometry"/>
                </mxCell>
                <mxCell id="6nwYWtiXRFRDtBGKJxEg-62" value="avis" style="swimlane;whiteSpace=wrap;html=1;startSize=23;" parent="6nwYWtiXRFRDtBGKJxEg-1" vertex="1">
                    <mxGeometry x="290" y="965" width="110" height="130" as="geometry"/>
                </mxCell>
                <mxCell id="6nwYWtiXRFRDtBGKJxEg-63" value="firstname" style="text;html=1;align=center;verticalAlign=middle;resizable=0;points=[];autosize=1;strokeColor=none;fillColor=none;" parent="6nwYWtiXRFRDtBGKJxEg-62" vertex="1">
                    <mxGeometry y="47" width="70" height="30" as="geometry"/>
                </mxCell>
                <mxCell id="6nwYWtiXRFRDtBGKJxEg-64" value="comment" style="text;html=1;align=center;verticalAlign=middle;resizable=0;points=[];autosize=1;strokeColor=none;fillColor=none;" parent="6nwYWtiXRFRDtBGKJxEg-62" vertex="1">
                    <mxGeometry y="70" width="70" height="30" as="geometry"/>
                </mxCell>
                <mxCell id="6nwYWtiXRFRDtBGKJxEg-65" value="note" style="text;html=1;align=center;verticalAlign=middle;resizable=0;points=[];autosize=1;strokeColor=none;fillColor=none;" parent="6nwYWtiXRFRDtBGKJxEg-62" vertex="1">
                    <mxGeometry y="92" width="50" height="30" as="geometry"/>
                </mxCell>
                <mxCell id="6nwYWtiXRFRDtBGKJxEg-69" value="quantity" style="text;html=1;align=center;verticalAlign=middle;resizable=0;points=[];autosize=1;strokeColor=none;fillColor=none;" parent="6nwYWtiXRFRDtBGKJxEg-1" vertex="1">
                    <mxGeometry x="149" y="607" width="70" height="30" as="geometry"/>
                </mxCell>
                <mxCell id="KrLnZW23wrya4tjryXH2-0" value="" style="endArrow=none;html=1;" parent="6nwYWtiXRFRDtBGKJxEg-1" edge="1">
                    <mxGeometry width="50" height="50" relative="1" as="geometry">
                        <mxPoint x="200" y="570" as="sourcePoint"/>
                        <mxPoint x="200" y="490" as="targetPoint"/>
                    </mxGeometry>
                </mxCell>
                <mxCell id="KrLnZW23wrya4tjryXH2-1" value="" style="endArrow=none;html=1;" parent="6nwYWtiXRFRDtBGKJxEg-1" edge="1">
                    <mxGeometry width="50" height="50" relative="1" as="geometry">
                        <mxPoint x="300" y="816.6666870117188" as="sourcePoint"/>
                        <mxPoint x="200" y="670" as="targetPoint"/>
                    </mxGeometry>
                </mxCell>
                <mxCell id="KrLnZW23wrya4tjryXH2-2" value="cart_id" style="text;html=1;align=center;verticalAlign=middle;resizable=0;points=[];autosize=1;strokeColor=none;fillColor=none;" parent="6nwYWtiXRFRDtBGKJxEg-1" vertex="1">
                    <mxGeometry x="152" y="627" width="60" height="30" as="geometry"/>
                </mxCell>
                <mxCell id="KrLnZW23wrya4tjryXH2-3" value="product_id" style="text;html=1;align=center;verticalAlign=middle;resizable=0;points=[];autosize=1;strokeColor=none;fillColor=none;" parent="6nwYWtiXRFRDtBGKJxEg-1" vertex="1">
                    <mxGeometry x="150" y="645" width="80" height="30" as="geometry"/>
                </mxCell>
                <mxCell id="KrLnZW23wrya4tjryXH2-5" value="" style="endArrow=none;html=1;entryX=0.43;entryY=-0.021;entryDx=0;entryDy=0;entryPerimeter=0;" parent="6nwYWtiXRFRDtBGKJxEg-1" edge="1">
                    <mxGeometry width="50" height="50" relative="1" as="geometry">
                        <mxPoint x="337" y="900" as="sourcePoint"/>
                        <mxPoint x="337.29999999999995" y="964.27" as="targetPoint"/>
                    </mxGeometry>
                </mxCell>
                <mxCell id="KrLnZW23wrya4tjryXH2-6" value="id" style="text;html=1;align=center;verticalAlign=middle;resizable=0;points=[];autosize=1;strokeColor=none;fillColor=none;" parent="6nwYWtiXRFRDtBGKJxEg-1" vertex="1">
                    <mxGeometry x="292" y="993" width="30" height="30" as="geometry"/>
                </mxCell>
                <mxCell id="KrLnZW23wrya4tjryXH2-7" value="id" style="text;html=1;align=center;verticalAlign=middle;resizable=0;points=[];autosize=1;strokeColor=none;fillColor=none;" parent="6nwYWtiXRFRDtBGKJxEg-1" vertex="1">
                    <mxGeometry x="300" y="740" width="30" height="30" as="geometry"/>
                </mxCell>
                <mxCell id="KrLnZW23wrya4tjryXH2-9" value="" style="endArrow=none;html=1;exitX=1;exitY=0.25;exitDx=0;exitDy=0;" parent="6nwYWtiXRFRDtBGKJxEg-1" source="6nwYWtiXRFRDtBGKJxEg-36" edge="1">
                    <mxGeometry width="50" height="50" relative="1" as="geometry">
                        <mxPoint x="310" y="826.6666870117188" as="sourcePoint"/>
                        <mxPoint x="540" y="490" as="targetPoint"/>
                    </mxGeometry>
                </mxCell>
                <mxCell id="KrLnZW23wrya4tjryXH2-11" value="" style="endArrow=none;html=1;" parent="6nwYWtiXRFRDtBGKJxEg-1" edge="1">
                    <mxGeometry width="50" height="50" relative="1" as="geometry">
                        <mxPoint x="520" y="411" as="sourcePoint"/>
                        <mxPoint x="520" y="350" as="targetPoint"/>
                    </mxGeometry>
                </mxCell>
                <mxCell id="KrLnZW23wrya4tjryXH2-12" value="id" style="text;html=1;align=center;verticalAlign=middle;resizable=0;points=[];autosize=1;strokeColor=none;fillColor=none;" parent="6nwYWtiXRFRDtBGKJxEg-1" vertex="1">
                    <mxGeometry x="485" y="270" width="30" height="30" as="geometry"/>
                </mxCell>
                <mxCell id="KrLnZW23wrya4tjryXH2-13" value="" style="endArrow=none;html=1;" parent="6nwYWtiXRFRDtBGKJxEg-1" edge="1">
                    <mxGeometry width="50" height="50" relative="1" as="geometry">
                        <mxPoint x="480" y="320" as="sourcePoint"/>
                        <mxPoint x="410" y="320" as="targetPoint"/>
                    </mxGeometry>
                </mxCell>
                <mxCell id="KrLnZW23wrya4tjryXH2-15" value="" style="endArrow=none;html=1;entryX=0.5;entryY=0;entryDx=0;entryDy=0;" parent="6nwYWtiXRFRDtBGKJxEg-1" target="6nwYWtiXRFRDtBGKJxEg-48" edge="1">
                    <mxGeometry width="50" height="50" relative="1" as="geometry">
                        <mxPoint x="300" y="304" as="sourcePoint"/>
                        <mxPoint x="190" y="400" as="targetPoint"/>
                    </mxGeometry>
                </mxCell>
                <mxCell id="KrLnZW23wrya4tjryXH2-17" value="user_id" style="text;html=1;align=center;verticalAlign=middle;resizable=0;points=[];autosize=1;strokeColor=none;fillColor=none;" parent="6nwYWtiXRFRDtBGKJxEg-1" vertex="1">
                    <mxGeometry x="135" y="455" width="60" height="30" as="geometry"/>
                </mxCell>
                <mxCell id="KrLnZW23wrya4tjryXH2-19" value="" style="endArrow=none;html=1;exitX=0.5;exitY=0;exitDx=0;exitDy=0;entryX=0.5;entryY=1;entryDx=0;entryDy=0;" parent="6nwYWtiXRFRDtBGKJxEg-1" source="6nwYWtiXRFRDtBGKJxEg-2" target="6nwYWtiXRFRDtBGKJxEg-8" edge="1">
                    <mxGeometry width="50" height="50" relative="1" as="geometry">
                        <mxPoint x="322" y="150" as="sourcePoint"/>
                        <mxPoint x="240" y="120" as="targetPoint"/>
                    </mxGeometry>
                </mxCell>
                <mxCell id="KrLnZW23wrya4tjryXH2-20" value="user_id" style="text;html=1;align=center;verticalAlign=middle;resizable=0;points=[];autosize=1;strokeColor=none;fillColor=none;" parent="6nwYWtiXRFRDtBGKJxEg-1" vertex="1">
                    <mxGeometry x="210" y="85" width="60" height="30" as="geometry"/>
                </mxCell>
                <mxCell id="JB02a4a43lwmaOSKpT_9-0" value="payment" style="swimlane;whiteSpace=wrap;html=1;startSize=23;" parent="6nwYWtiXRFRDtBGKJxEg-1" vertex="1">
                    <mxGeometry x="475" y="40" width="100" height="85" as="geometry"/>
                </mxCell>
                <mxCell id="JB02a4a43lwmaOSKpT_9-1" value="total_price" style="text;html=1;align=center;verticalAlign=middle;resizable=0;points=[];autosize=1;strokeColor=none;fillColor=none;" parent="JB02a4a43lwmaOSKpT_9-0" vertex="1">
                    <mxGeometry y="49.5" width="80" height="30" as="geometry"/>
                </mxCell>
                <mxCell id="JB02a4a43lwmaOSKpT_9-2" value="" style="endArrow=none;html=1;exitX=0.5;exitY=0;exitDx=0;exitDy=0;" parent="6nwYWtiXRFRDtBGKJxEg-1" source="6nwYWtiXRFRDtBGKJxEg-20" edge="1">
                    <mxGeometry width="50" height="50" relative="1" as="geometry">
                        <mxPoint x="490" y="330" as="sourcePoint"/>
                        <mxPoint x="530" y="130" as="targetPoint"/>
                    </mxGeometry>
                </mxCell>
                <mxCell id="Nch3IXGT_WikVMm_Mk6D-0" value="id" style="text;html=1;align=center;verticalAlign=middle;resizable=0;points=[];autosize=1;strokeColor=none;fillColor=none;" parent="6nwYWtiXRFRDtBGKJxEg-1" vertex="1">
                    <mxGeometry x="480" y="65" width="30" height="30" as="geometry"/>
                </mxCell>
                <mxCell id="GEKt4nUGtRGo-3rYPxrv-0" value="category" style="swimlane;whiteSpace=wrap;html=1;startSize=23;" vertex="1" parent="6nwYWtiXRFRDtBGKJxEg-1">
                    <mxGeometry x="560" y="723" width="110" height="84" as="geometry"/>
                </mxCell>
                <mxCell id="GEKt4nUGtRGo-3rYPxrv-1" value="name" style="text;html=1;align=center;verticalAlign=middle;resizable=0;points=[];autosize=1;strokeColor=none;fillColor=none;" vertex="1" parent="GEKt4nUGtRGo-3rYPxrv-0">
                    <mxGeometry x="1" y="35" width="50" height="30" as="geometry"/>
                </mxCell>
                <mxCell id="GEKt4nUGtRGo-3rYPxrv-2" value="description" style="text;html=1;align=center;verticalAlign=middle;resizable=0;points=[];autosize=1;strokeColor=none;fillColor=none;" vertex="1" parent="GEKt4nUGtRGo-3rYPxrv-0">
                    <mxGeometry x="-5" y="56" width="80" height="30" as="geometry"/>
                </mxCell>
                <mxCell id="SDl93wGFs1K0jjf1k_P6-0" value="id" style="text;html=1;align=center;verticalAlign=middle;resizable=0;points=[];autosize=1;strokeColor=none;fillColor=none;" vertex="1" parent="GEKt4nUGtRGo-3rYPxrv-0">
                    <mxGeometry y="22" width="30" height="30" as="geometry"/>
                </mxCell>
                <mxCell id="GEKt4nUGtRGo-3rYPxrv-3" value="sous-category" style="swimlane;whiteSpace=wrap;html=1;startSize=23;" vertex="1" parent="6nwYWtiXRFRDtBGKJxEg-1">
                    <mxGeometry x="551" y="913" width="110" height="110" as="geometry"/>
                </mxCell>
                <mxCell id="GEKt4nUGtRGo-3rYPxrv-4" value="name" style="text;html=1;align=center;verticalAlign=middle;resizable=0;points=[];autosize=1;strokeColor=none;fillColor=none;" vertex="1" parent="GEKt4nUGtRGo-3rYPxrv-3">
                    <mxGeometry x="5" y="38" width="50" height="30" as="geometry"/>
                </mxCell>
                <mxCell id="GEKt4nUGtRGo-3rYPxrv-5" value="description" style="text;html=1;align=center;verticalAlign=middle;resizable=0;points=[];autosize=1;strokeColor=none;fillColor=none;" vertex="1" parent="GEKt4nUGtRGo-3rYPxrv-3">
                    <mxGeometry x="-5" y="59" width="80" height="30" as="geometry"/>
                </mxCell>
                <mxCell id="SDl93wGFs1K0jjf1k_P6-1" value="id" style="text;html=1;align=center;verticalAlign=middle;resizable=0;points=[];autosize=1;strokeColor=none;fillColor=none;" vertex="1" parent="GEKt4nUGtRGo-3rYPxrv-3">
                    <mxGeometry x="5" y="17" width="30" height="30" as="geometry"/>
                </mxCell>
                <mxCell id="GEKt4nUGtRGo-3rYPxrv-10" value="" style="endArrow=none;html=1;" edge="1" parent="6nwYWtiXRFRDtBGKJxEg-1">
                    <mxGeometry width="50" height="50" relative="1" as="geometry">
                        <mxPoint x="410" y="830" as="sourcePoint"/>
                        <mxPoint x="550" y="960" as="targetPoint"/>
                    </mxGeometry>
                </mxCell>
                <mxCell id="GEKt4nUGtRGo-3rYPxrv-11" value="" style="endArrow=none;html=1;" edge="1" parent="6nwYWtiXRFRDtBGKJxEg-1" target="GEKt4nUGtRGo-3rYPxrv-3">
                    <mxGeometry width="50" height="50" relative="1" as="geometry">
                        <mxPoint x="610" y="810" as="sourcePoint"/>
                        <mxPoint x="357.29999999999995" y="984.27" as="targetPoint"/>
                    </mxGeometry>
                </mxCell>
                <mxCell id="GEKt4nUGtRGo-3rYPxrv-12" value="category_id" style="text;html=1;align=center;verticalAlign=middle;resizable=0;points=[];autosize=1;strokeColor=none;fillColor=none;" vertex="1" parent="6nwYWtiXRFRDtBGKJxEg-1">
                    <mxGeometry x="545" y="995" width="90" height="30" as="geometry"/>
                </mxCell>
            </root>
        </mxGraphModel>
    </diagram>
</mxfile>